PathFileType	4	(X/Y/Z)	markers
DataRate	CameraRate	NumFrames	NumMarkers	Units	OrigDataRate	OrigDataStartFrame	OrigNumFrames
200	200	9	39	mm	200	33	257
Frame#	Time	RASI			LASI			RPSI			LPSI			RTH1			RTH2			RTH3			RTH4			RLFC			RTB1			RTB2			RTB3			RTB4			RLMAL			RCAL			RTOE			RMT5			LTH1			LTH2			LTH3			LTH4			LLFC			LTB1			LTB2			LTB3			LTB4			LLMAL			LCAL			LTOE			LMT5			C7			T10			CLAV			RACR			LACR			RLEL			RFAradius			LLEL			LFAradius		
		X1	Y1	Z1	X2	Y2	Z2	X3	Y3	Z3	X4	Y4	Z4	X5	Y5	Z5	X6	Y6	Z6	X7	Y7	Z7	X8	Y8	Z8	X9	Y9	Z9	X10	Y10	Z10	X11	Y11	Z11	X12	Y12	Z12	X13	Y13	Z13	X14	Y14	Z14	X15	Y15	Z15	X16	Y16	Z16	X17	Y17	Z17	X18	Y18	Z18	X19	Y19	Z19	X20	Y20	Z20	X21	Y21	Z21	X22	Y22	Z22	X23	Y23	Z23	X24	Y24	Z24	X25	Y25	Z25	X26	Y26	Z26	X27	Y27	Z27	X28	Y28	Z28	X29	Y29	Z29	X30	Y30	Z30	X31	Y31	Z31	X32	Y32	Z32	X33	Y33	Z33	X34	Y34	Z34	X35	Y35	Z35	X36	Y36	Z36	X37	Y37	Z37	X38	Y38	Z38	X39	Y39	Z39
33	0.160000	184.016902	929.847744	681.671334	152.021826	967.046868	446.368094	7.950031	971.516561	639.302562	-7.026769	983.694007	547.648784	199.645901	677.055136	725.604297	252.668479	688.240681	688.547468	275.010846	589.421815	684.532081	236.366369	576.456732	713.504917	247.704610	448.876286	687.224136	138.169125	437.572429	712.866385	144.430936	394.931629	687.544684	38.690798	381.269834	671.012494	32.851014	432.834144	701.260564	-161.795716	423.338207	677.753170	-210.247712	475.533856	620.991791	-190.795284	251.588993	604.981469	-198.319889	291.088892	703.381814	197.632819	710.796035	395.379045	230.778025	731.521292	425.898714	267.792468	641.640418	459.351845	225.720900	609.623991	419.291980	241.027378	486.090592	446.885087	211.941840	388.734662	427.642517	247.290192	376.079115	460.023498	203.619854	285.071183	480.194526	156.489340	298.593897	436.419089	71.747546	104.717373	487.680863	-20.283644	91.003626	534.565662	199.379742	63.366393	561.621277	161.329419	56.066730	464.187355	100.680353	1478.690928	571.569760	8.310940	1295.555367	599.864781	207.544590	1388.958647	586.900162	160.838296	1454.015497	738.928787	127.844113	1431.896887	396.083338	53.393736	1141.205483	849.470976	237.353395	1011.678327	729.297147	-5.494017	1110.092930	319.221787	236.568003	1071.400375	378.356695
34	0.165000	198.006434	928.716813	681.098299	166.252045	965.046442	445.951617	21.770603	969.258738	638.634218	6.984501	981.235734	547.382148	219.069176	677.741114	725.733679	271.188131	690.517111	689.299766	296.917074	592.077999	684.855708	258.322895	578.165790	713.977611	274.298516	450.589125	687.121046	164.126422	438.915922	713.492944	170.431427	396.039944	687.857232	65.163285	380.292874	670.937794	59.936069	432.614587	702.818764	-135.787783	420.632630	678.624560	-184.716990	472.123710	622.957349	-162.375356	248.157154	606.451656	-170.470772	287.624550	703.587376	210.410491	706.767524	395.552618	243.254390	727.038409	426.153932	278.697711	636.982101	460.078083	235.147105	606.312918	418.748753	249.608565	480.522497	446.252422	218.659307	384.152947	427.958205	254.596856	370.151318	459.434315	208.220315	280.152899	480.528656	161.033549	294.202719	437.389731	73.840368	103.052803	488.141921	-19.535019	91.454606	534.870768	199.550177	63.157855	561.655460	161.558023	56.068163	464.286807	115.905255	1475.887103	571.522937	22.811829	1293.812004	598.349651	222.682967	1385.099500	587.052202	174.621838	1450.955099	738.890246	143.669182	1428.930157	395.411107	60.811265	1140.180533	849.093236	243.461033	1004.415776	732.970674	16.720621	1103.750118	319.334335	258.594734	1072.780653	380.741613
35	0.170000	210.638193	927.287289	682.049970	180.084830	962.055189	446.339603	35.200216	967.473040	638.231974	20.767301	979.463524	547.101426	238.644843	677.838697	725.739693	289.787231	693.182224	690.313216	318.657030	594.674828	684.820276	280.341858	580.037977	714.434206	299.090996	454.764577	688.051956	190.515542	439.310733	712.654496	196.927243	396.424619	688.349368	90.446824	379.441703	669.934841	88.274610	434.552901	706.947068	-109.692715	416.731569	679.096869	-160.325022	467.905277	623.833191	-132.744787	244.801319	606.552263	-139.956481	285.275276	707.439884	222.369534	703.531217	395.077783	255.584679	723.490874	426.713233	289.757302	632.421988	460.162137	246.124929	601.954864	418.869961	255.756860	474.656585	446.330841	224.636813	378.684974	427.833071	259.104695	365.400381	460.416594	212.634691	276.920539	481.942002	166.014773	291.893266	437.620448	74.294235	102.466517	488.642464	-18.741873	92.042197	535.366811	199.752134	62.909372	561.654566	161.781442	56.058265	464.386092	130.970695	1473.023337	570.536457	36.935412	1291.733311	597.173748	237.586023	1383.098032	587.340319	188.839846	1448.247620	739.150964	160.334596	1426.216342	394.621687	68.660881	1140.342886	848.827842	250.134599	998.312904	737.135238	38.425557	1098.193719	319.531410	280.455046	1074.135927	383.426682
36	0.175000	223.009875	925.947651	682.998347	194.785040	959.648468	447.176080	48.833100	965.716204	638.085332	34.509131	977.794734	547.031860	257.780243	679.928245	727.104631	308.360506	695.361851	689.264684	339.241548	598.692114	684.843950	302.116006	582.849582	715.162892	324.933522	456.803285	686.834372	215.982223	440.855293	713.524454	223.252257	398.122287	687.596332	116.895981	379.182379	670.783085	114.736556	434.844491	706.336524	-84.144618	414.896999	681.711863	-136.087261	463.373163	625.430727	-103.339328	241.012876	607.690456	-110.278468	281.519673	708.030675	233.855797	699.701571	395.414820	267.338521	719.335822	426.831797	300.354592	627.773386	459.993557	255.695198	598.260271	418.726302	262.251491	469.777186	445.846602	231.003491	374.201177	427.415350	265.772073	360.471495	459.377486	216.698225	271.711173	482.354120	169.466582	287.514621	438.992724	74.956259	101.979352	488.870162	-17.885656	92.965338	536.404350	199.986630	62.667290	561.657545	161.964562	56.043845	464.494633	145.850856	1470.628705	570.524845	51.146561	1290.465130	595.716221	252.542544	1379.898244	587.315051	203.145133	1445.644593	739.204953	176.840327	1424.023396	394.232883	75.308313	1140.292285	848.881368	255.222495	992.818069	740.805570	60.622827	1093.468540	319.851986	302.182162	1077.029581	385.969343
37	0.180000	235.117381	924.445671	683.887410	209.834306	957.794684	447.619953	62.502970	964.676364	638.263891	48.912491	976.822799	546.793061	276.383286	681.906705	727.709023	326.713069	697.976138	689.056450	360.578632	602.813733	684.876120	323.947815	585.776583	715.118959	350.600481	461.712091	687.216382	241.507017	443.359923	712.844072	248.800291	399.029637	687.475908	143.152781	378.692694	670.482814	139.982690	434.923848	706.907945	-58.362985	410.375671	682.445579	-111.443059	458.441036	626.978201	-73.157533	236.799162	608.318976	-81.452513	276.810850	709.355358	244.922709	696.602668	395.672740	279.059084	715.160191	427.020768	310.600776	623.331787	459.653470	266.642833	594.012874	418.757541	268.179314	464.909913	445.923633	235.837915	371.038441	427.429656	269.842176	354.472053	460.302599	220.809574	269.047089	482.227573	173.136442	285.736781	439.427009	75.466636	101.615699	489.162717	-17.323379	93.658624	536.905206	200.194926	62.428145	561.629224	162.065317	56.016862	464.621857	161.045737	1468.818550	569.995485	65.862051	1289.497676	594.460161	267.366240	1378.300312	587.864295	216.726409	1443.741356	739.614407	193.270820	1422.349402	394.223241	82.053508	1141.171396	848.729569	260.923560	989.379984	745.089483	82.482882	1089.181740	320.201524	323.584342	1080.866209	389.166039
38	0.185000	248.575453	924.244910	684.619490	224.293855	955.720781	448.506374	77.026642	963.846774	638.350514	63.523903	975.374495	546.926327	295.467924	683.985418	727.684039	344.936556	702.514996	689.651404	381.938907	606.752927	685.137163	345.304000	589.734555	716.229160	374.591007	465.869481	688.233746	267.354852	445.318458	713.586583	276.695983	403.314408	687.279544	171.436610	380.445691	672.819496	165.648669	435.971453	708.618078	-32.678915	405.574668	683.713860	-87.194728	452.022030	628.251690	-42.620884	232.382091	609.519326	-51.918075	271.841275	710.026614	256.125100	693.665314	395.795092	291.251337	711.942107	426.983112	320.583669	618.839521	459.559678	276.844978	590.330630	418.675725	274.347538	460.527570	445.540052	241.868289	368.888612	426.839915	275.476200	352.064219	459.170893	224.021012	266.449828	482.161002	176.657898	283.831483	439.902757	76.069366	101.350315	489.356907	-17.458743	94.096307	536.871586	200.385148	62.102496	561.658560	162.220337	56.031459	464.741186	176.026765	1467.141978	569.467430	80.539556	1288.632470	593.298929	282.440701	1376.934580	587.407583	230.884344	1442.243861	739.533278	210.138234	1421.127977	393.873974	89.031296	1142.962168	848.542811	265.713338	986.059985	749.277828	104.470584	1085.615210	320.972066	345.220590	1085.356472	392.509317
39	0.190000	262.605255	924.119894	685.333097	238.902214	954.439949	449.085126	91.241314	963.156758	638.450002	77.928941	975.326939	547.293239	314.654197	686.908575	727.626704	362.650556	706.690769	690.034959	401.813124	612.273429	684.850643	366.945683	593.940139	715.920574	400.669394	471.279277	687.433488	291.921000	447.886094	713.599246	301.950969	405.523986	689.355165	197.674185	381.739051	675.131880	190.915972	436.143089	708.810540	-7.698347	400.776383	683.644713	-62.954856	445.473787	628.980095	-11.821141	227.757913	610.228129	-22.069732	266.637106	711.290868	267.396992	690.943453	395.816424	304.349749	709.554971	424.138075	329.888221	615.259278	459.782730	286.433404	586.934060	419.235515	281.860684	457.221656	445.426740	245.928060	365.358083	427.545699	279.797293	348.668803	459.032556	227.199800	263.286671	481.735268	181.126749	282.603811	439.280646	76.661457	101.093888	489.618149	-16.297791	95.081453	537.421142	200.642381	61.946470	561.626618	162.302352	56.036899	464.748610	191.453926	1466.148344	569.188253	95.797780	1288.003861	591.844044	297.178838	1375.093120	588.835303	244.536545	1441.422002	739.938712	227.980609	1420.369122	393.153783	95.109538	1145.195850	848.281549	270.725753	984.351318	753.346282	127.179598	1082.875067	321.880169	366.645232	1090.382248	396.330919
40	0.195000	278.309385	925.738124	685.575508	253.579079	953.904716	449.309536	105.197234	963.369186	638.809012	92.368679	974.554022	547.239463	333.111141	690.875561	728.808066	380.513185	711.868669	689.778258	422.563416	618.495767	685.335936	387.648042	598.961378	716.189977	424.985588	476.070946	688.160053	318.405127	451.365909	714.301784	327.567129	408.033943	689.176174	224.304588	381.159202	673.809470	215.843420	436.889629	709.934342	18.061040	395.119829	683.945127	-39.244809	439.187601	629.692323	19.369920	222.125965	611.397563	8.062559	261.217450	711.587841	278.672406	688.491033	395.771288	314.103953	705.467940	425.738907	338.094528	611.324945	459.174383	296.428340	584.934971	418.096568	288.350941	454.330002	445.541328	251.306086	363.932689	426.969845	284.311276	345.379811	459.470578	230.771020	261.467798	480.966517	184.378977	281.180682	439.262211	77.234123	100.976898	489.842941	-15.354978	95.642458	537.426047	200.863758	61.840774	561.555896	162.396186	56.023133	464.844652	206.592905	1465.532833	569.074376	110.355193	1287.830896	590.889383	312.289747	1374.632509	589.084116	258.562730	1440.643200	740.527607	244.887894	1420.139730	393.356351	101.618225	1148.407514	848.147642	275.476291	982.646484	758.412799	149.116478	1081.196014	322.554898	387.358623	1096.557151	398.600002
41	0.200000	293.029055	926.716003	686.238737	268.338451	952.549281	449.644616	119.391400	963.594552	638.870552	107.095702	975.178079	547.182027	351.466982	694.607217	729.555129	398.053175	716.562448	689.792124	442.307364	624.573127	684.504337	408.711801	603.961758	716.797943	447.762009	483.593717	688.467920	341.904803	454.206950	713.898504	352.446700	411.502876	689.060193	250.290447	382.925492	675.187183	240.233640	436.991493	709.940952	43.196112	390.692989	684.478988	-14.981189	431.985967	630.523761	51.128828	217.249024	612.250890	38.325638	255.124786	713.031918	289.885362	686.361998	395.694233	325.818806	703.003752	424.930588	347.230220	607.236523	459.071810	304.814474	581.873690	418.691223	294.863266	451.558224	445.758065	256.134554	361.834630	426.756209	287.829460	341.758206	458.812285	233.394687	259.901264	481.056091	188.244419	280.560276	438.756170	77.899923	101.127719	490.095413	-15.196784	96.716587	538.062097	200.990638	61.762645	561.496861	162.458528	55.976781	464.903372	221.962676	1465.652408	568.559207	125.361341	1288.152679	589.416672	327.253301	1374.679084	590.637503	272.124755	1440.809768	740.456847	261.600532	1420.632103	393.764429	108.741924	1152.030566	847.692726	280.539609	982.842343	762.114336	171.262122	1080.640486	323.795998	407.798510	1103.081492	401.888995
